<svg width="143" height="23" viewBox="0 0 143 23" fill="none" xmlns="http://www.w3.org/2000/svg">
<path d="M1.93 7.11L1.3 10.96L1.81 11.13C2.34 8.62 4.25 7.06 6.96 7.06H8.02V9.01H6.86C4.28 9.01 2.02 10.56 2.02 12.87V21.58H0V7.11H1.93Z" fill="white"/>
<path d="M16.36 20.2C18.79 20.2 20.51 18.84 20.94 16.61L22.88 17.01C22.18 20.19 19.69 22.07 16.36 22.07C11.89 22.07 9.18 19.13 9.18 14.28C9.18 9.43 11.77 6.56 16.01 6.56C20.25 6.56 22.87 9.66 22.87 14.09V14.87H11.27C11.53 18.29 13.35 20.2 16.35 20.2H16.36ZM20.78 13.25C20.78 10.46 18.77 8.39 16.01 8.39C13.25 8.39 11.71 10.14 11.34 13.25H20.78ZM15.93 5.04H14.25L17.68 0H19.95L15.93 5.04Z" fill="white"/>
<path d="M31.5 22.17C28.09 22.17 25.53 20.41 24.85 17.6L26.72 17.17C27.39 19.26 29.04 20.39 31.4 20.39C33.58 20.39 35.03 19.34 35.03 17.9C35.03 16.46 33.46 15.51 30.65 15.15C26.92 14.68 25.03 13.19 25.03 10.8C25.03 8.27 27.14 6.58 30.63 6.58C33.91 6.58 36.07 8.07 36.93 11.03L35.02 11.51C34.34 9.38 32.89 8.36 30.61 8.36C28.33 8.36 27.05 9.34 27.05 10.73C27.05 12.2 28.55 13.09 31.4 13.46C35.21 13.96 37.09 15.36 37.09 17.75C37.09 20.37 34.84 22.17 31.49 22.17H31.5Z" fill="white"/>
<path d="M46.24 20.2C48.67 20.2 50.39 18.84 50.82 16.61L52.76 17.01C52.06 20.19 49.57 22.07 46.24 22.07C41.77 22.07 39.06 19.13 39.06 14.28C39.06 9.43 41.65 6.56 45.89 6.56C50.13 6.56 52.75 9.66 52.75 14.09V14.87H41.15C41.41 18.29 43.23 20.2 46.23 20.2H46.24ZM50.66 13.25C50.66 10.46 48.65 8.39 45.89 8.39C43.13 8.39 41.59 10.14 41.22 13.25H50.66Z" fill="white"/>
<path d="M65.12 21.58L65.75 17.75L65.31 17.63C64.72 20.33 62.58 22.07 59.64 22.07C56.7 22.07 54.73 20.38 54.73 17.94C54.73 15.66 56.46 14.05 59.15 13.82L65.01 13.33V12.01C65.01 9.89 63.42 8.49 61.03 8.49C58.64 8.49 57 9.89 56.72 12.09L54.72 11.73C55.2 8.63 57.69 6.62 61.04 6.62C64.39 6.62 67.06 8.76 67.06 11.67V21.58H65.1H65.12ZM60.08 20.22C62.98 20.22 65.02 18.49 65.02 16.02V15L59.81 15.41C57.9 15.56 56.77 16.48 56.77 17.9C56.77 19.32 58.01 20.21 60.08 20.21V20.22Z" fill="white"/>
<path d="M80.41 21.58L81.05 17.82L80.54 17.67C79.99 20.32 78.03 22.04 75.27 22.04C72.31 22.04 70.05 19.61 70.05 16.49V7.11H72.09V16.14C72.09 18.64 73.72 20.28 76.11 20.28C78.5 20.28 80.32 18.55 80.32 16.08V7.11H82.38V21.58H80.41Z" fill="white"/>
<path d="M98.9 18.92C100.57 18.92 101.74 18.05 102.04 16.61L105.74 17.17C105 20.35 102.39 22.23 98.9 22.23C94.23 22.23 91.4 19.23 91.4 14.28C91.4 9.33 94.11 6.4 98.55 6.4C102.99 6.4 105.73 9.57 105.73 14.1V15.36H95.25C95.44 17.65 96.74 18.92 98.89 18.92H98.9ZM101.88 12.77C101.88 10.99 100.48 9.68 98.56 9.68C96.64 9.68 95.59 10.79 95.33 12.77H101.88Z" fill="white"/>
<path d="M117.29 21.58L117.82 17.98L117.28 17.85C116.68 20.55 114.76 22.24 112.12 22.24C109.32 22.24 107.39 20.42 107.39 17.78C107.39 15.14 109.08 13.64 111.97 13.37L116.87 12.93V12.03C116.87 10.64 115.79 9.71 114.17 9.71C112.55 9.71 111.34 10.7 111.15 12.25L107.39 11.73C107.91 8.54 110.58 6.48 114.2 6.48C117.82 6.48 120.7 8.69 120.7 11.69V21.6H117.29V21.58ZM113.39 19.1C115.44 19.1 116.87 17.77 116.87 15.87V15.41L113.18 15.72C111.9 15.83 111.09 16.5 111.09 17.46C111.09 18.48 111.96 19.1 113.39 19.1Z" fill="white"/>
<path d="M129.92 22.33C126.18 22.33 123.54 20.5 122.83 17.42L126.47 16.91C126.95 18.44 128.13 19.26 129.84 19.26C131.28 19.26 132.22 18.6 132.22 17.65C132.22 16.55 130.95 15.86 128.7 15.64C125.08 15.31 123.02 13.6 123.02 10.95C123.02 8.16 125.31 6.4 129.09 6.4C132.65 6.4 134.96 7.92 135.89 10.92L132.22 11.65C131.73 10.19 130.7 9.48 129.1 9.48C127.69 9.48 126.82 10.08 126.82 10.96C126.82 11.94 127.85 12.5 130.04 12.78C134.11 13.29 136.05 14.79 136.05 17.45C136.05 20.4 133.65 22.33 129.92 22.33Z" fill="white"/>
<path d="M140.03 1C141.23 1 142.23 2 142.23 3.2C142.23 4.4 141.23 5.43 140.03 5.43C138.83 5.43 137.83 4.38 137.83 3.2C137.83 2.02 138.83 1 140.03 1ZM141.97 21.59H138.17V7.11H141.97V21.59Z" fill="white"/>
</svg>
