<svg width="175" height="91" viewBox="0 0 175 91" fill="none" xmlns="http://www.w3.org/2000/svg">
<g clip-path="url(#clip0_477_179)">
<path d="M12.24 27.8999L7.40002 18.4599H2.29002V27.8999H0.0200195V6.62988H8.18002C9.10002 6.62988 9.94002 6.75988 10.72 7.02988C11.5 7.29988 12.16 7.68988 12.72 8.19988C13.28 8.70988 13.71 9.32988 14.02 10.0699C14.33 10.8099 14.48 11.6299 14.48 12.5499C14.48 14.0999 14.05 15.3699 13.2 16.3599C12.34 17.3499 11.23 17.9799 9.85002 18.2599L14.9 27.9099H12.24V27.8999ZM12.21 12.5799C12.21 11.2699 11.82 10.2899 11.03 9.63988C10.24 8.98988 9.22002 8.66988 7.97002 8.66988H2.29002V16.4699H7.97002C9.22002 16.4699 10.24 16.1499 11.03 15.5099C11.82 14.8699 12.21 13.8999 12.21 12.5799Z" fill="black"/>
<path d="M19.6201 27.9V6.63H32.8201V8.66H21.8901V16.16H31.2101V18.19H21.8901V25.87H32.8201V27.9H19.6201ZM26.4301 4.57H24.4601L27.0901 0H29.6601L26.4301 4.57Z" fill="black"/>
<path d="M50.36 22.05C50.36 22.99 50.19 23.83 49.84 24.57C49.49 25.32 48.99 25.95 48.35 26.47C47.7 26.99 46.93 27.39 46.02 27.67C45.11 27.95 44.11 28.09 43.02 28.09C41.43 28.09 40.06 27.87 38.93 27.43C37.79 26.99 36.73 26.28 35.73 25.28L37.28 23.73C38.16 24.61 39.04 25.21 39.94 25.55C40.84 25.89 41.88 26.06 43.08 26.06C44.63 26.06 45.86 25.72 46.75 25.03C47.65 24.34 48.09 23.37 48.09 22.12C48.09 21.56 48.01 21.06 47.84 20.6C47.67 20.14 47.42 19.76 47.08 19.46C46.74 19.16 46.39 18.95 46.02 18.82C45.65 18.69 45.08 18.57 44.3 18.45L41.82 18.06C40.13 17.78 38.82 17.24 37.91 16.45C36.83 15.49 36.3 14.17 36.3 12.48C36.3 11.58 36.46 10.76 36.78 10.02C37.1 9.26998 37.55 8.63998 38.14 8.11998C38.73 7.59998 39.44 7.19998 40.28 6.90998C41.12 6.61998 42.06 6.47998 43.12 6.47998C44.47 6.47998 45.64 6.65998 46.62 7.02998C47.6 7.39998 48.54 7.98998 49.46 8.80998L48 10.27C47.34 9.66998 46.64 9.21998 45.88 8.90998C45.12 8.59998 44.18 8.44998 43.04 8.44998C41.61 8.44998 40.5 8.80998 39.72 9.52998C38.94 10.25 38.55 11.2 38.55 12.4C38.55 13.48 38.87 14.29 39.51 14.85C39.85 15.13 40.27 15.37 40.78 15.57C41.29 15.77 41.82 15.92 42.38 16.02L44.71 16.38C45.21 16.46 45.65 16.54 46.04 16.63C46.43 16.72 46.77 16.82 47.07 16.94C47.37 17.06 47.64 17.19 47.89 17.34C48.14 17.49 48.37 17.66 48.59 17.86C49.78 18.88 50.38 20.28 50.38 22.07L50.36 22.05Z" fill="black"/>
<path d="M55.1099 27.8999V6.62988H68.3099V8.65988H57.3799V16.1599H66.6999V18.1899H57.3799V25.8699H68.3099V27.8999H55.1099Z" fill="black"/>
<path d="M85.4298 27.8999L83.7298 23.0899H74.4398L72.7398 27.8999H70.3198L78.1498 6.62988H80.0598L87.8598 27.8999H85.4398H85.4298ZM79.1298 9.88988L75.1298 21.1199H83.0798L79.1398 9.88988H79.1298Z" fill="black"/>
<path d="M105.83 20.8799C105.83 21.9399 105.65 22.9099 105.28 23.7899C104.91 24.6799 104.39 25.4399 103.73 26.0799C103.06 26.7199 102.28 27.2099 101.37 27.5599C100.46 27.9099 99.4702 28.0799 98.4002 28.0799C97.3302 28.0799 96.3302 27.9099 95.4302 27.5599C94.5202 27.2099 93.7402 26.7199 93.0802 26.0799C92.4202 25.4399 91.9102 24.6799 91.5402 23.7899C91.1702 22.8999 90.9902 21.9299 90.9902 20.8799V6.62988H93.2602V20.6999C93.2602 21.5199 93.3802 22.2499 93.6202 22.9099C93.8602 23.5699 94.2002 24.1199 94.6502 24.5799C95.1002 25.0399 95.6402 25.3999 96.2802 25.6599C96.9202 25.9199 97.6202 26.0499 98.4002 26.0499C99.1802 26.0499 99.8802 25.9199 100.52 25.6599C101.16 25.3999 101.7 25.0399 102.15 24.5799C102.6 24.1199 102.95 23.5599 103.2 22.9099C103.45 22.2499 103.57 21.5199 103.57 20.6999V6.62988H105.84V20.8799H105.83Z" fill="black"/>
<path d="M0 89.8401V33.5701H37.07V43.3701H10.99V56.5701H33.2V66.3701H10.99V80.0401H37.07V89.8401H0Z" fill="#EA5207"/>
<path d="M86.1502 89.8401L82.8302 79.8801H62.8302L59.4302 89.8401H47.9702L68.4402 33.5701H77.0502L97.6002 89.8401H86.1402H86.1502ZM73.0302 50.1601L65.9202 70.6301H79.9102L73.0302 50.1601Z" fill="#EA5207"/>
<path d="M147.24 73.2401C147.24 75.9801 146.7 78.4001 145.62 80.5101C144.54 82.6201 143.06 84.4001 141.19 85.8401C139.32 87.2901 137.12 88.4001 134.59 89.1601C132.06 89.9201 129.32 90.3101 126.37 90.3101C122.1 90.3101 118.29 89.7701 114.95 88.6901C111.6 87.6101 108.56 85.6701 105.82 82.8801L112.93 75.7701C114.72 77.5601 116.78 78.8001 119.1 79.4801C121.42 80.1701 123.89 80.5101 126.53 80.5101C129.8 80.5101 132.27 79.9201 133.96 78.7301C135.65 77.5401 136.49 75.8201 136.49 73.5501C136.49 71.4901 135.91 69.9101 134.75 68.8101C134.17 68.2801 133.52 67.8701 132.81 67.5801C132.1 67.2901 131.08 67.0401 129.77 66.8301L122.97 65.8801C118.18 65.2001 114.54 63.6401 112.06 61.2201C109.37 58.5301 108.03 54.8401 108.03 50.1501C108.03 47.6201 108.48 45.3201 109.37 43.2301C110.27 41.1501 111.56 39.3601 113.24 37.8601C114.93 36.3601 116.98 35.1901 119.4 34.3401C121.82 33.5001 124.56 33.0801 127.62 33.0801C131.52 33.0801 134.92 33.5801 137.82 34.5801C140.72 35.5801 143.38 37.2701 145.8 39.6401L138.84 46.5201C137.05 44.8301 135.14 43.7701 133.11 43.3201C131.08 42.8701 129.14 42.6501 127.3 42.6501C124.35 42.6501 122.16 43.3501 120.74 44.7401C119.32 46.1401 118.61 47.8101 118.61 49.7601C118.61 50.5001 118.74 51.2101 119.01 51.8901C119.27 52.5801 119.69 53.2101 120.27 53.7901C120.85 54.3201 121.57 54.7801 122.44 55.1701C123.31 55.5701 124.32 55.8401 125.48 56.0001L132.12 56.9501C134.7 57.3201 136.83 57.8601 138.52 58.5701C140.21 59.2801 141.65 60.1901 142.87 61.3001C144.4 62.7201 145.5 64.4401 146.19 66.4401C146.87 68.4401 147.22 70.7101 147.22 73.2401H147.24Z" fill="#EA5207"/>
<path d="M163.92 89.8401V33.5701H174.91V89.8401H163.92Z" fill="#EA5207"/>
</g>
<defs>
<clipPath id="clip0_477_179">
<rect width="174.9" height="90.32" fill="white"/>
</clipPath>
</defs>
</svg>
